<svg width="39" height="32" viewBox="0 0 39 32" fill="none" xmlns="http://www.w3.org/2000/svg">
<g clip-path="url(#clip0_9_2223)">
<path d="M0 8C0 3.58172 3.58172 0 8 0H35.8918C36.5892 0 36.8783 0.892908 36.3134 1.30169L19.171 13.7056C17.1097 15.1971 14.6303 16 12.086 16H8C3.58172 16 0 12.4183 0 8Z" fill="white"/>
<path d="M38.1123 23.9999C38.1123 28.4182 34.5306 31.9999 30.1123 31.9999H2.22047C1.52315 31.9999 1.23398 31.107 1.79892 30.6982L18.9413 18.2943C21.0026 16.8028 23.482 15.9999 26.0263 15.9999H30.1123C34.5306 15.9999 38.1123 19.5816 38.1123 23.9999Z" fill="white"/>
</g>
<defs>
<clipPath id="clip0_9_2223">
<rect width="38.11" height="31.2697" fill="white" transform="scale(1.02335)"/>
</clipPath>
</defs>
</svg>
