<svg width="20" height="20" viewBox="0 0 20 20" fill="none" xmlns="http://www.w3.org/2000/svg">
<path d="M8.83268 11.5001L7.04102 9.70841C6.88824 9.55564 6.6938 9.47925 6.45768 9.47925C6.22157 9.47925 6.02713 9.55564 5.87435 9.70841C5.72157 9.86119 5.64518 10.0556 5.64518 10.2917C5.64518 10.5279 5.72157 10.7223 5.87435 10.8751L8.24935 13.2501C8.41602 13.4167 8.61046 13.5001 8.83268 13.5001C9.05491 13.5001 9.24935 13.4167 9.41602 13.2501L14.1244 8.54175C14.2771 8.38897 14.3535 8.19453 14.3535 7.95842C14.3535 7.7223 14.2771 7.52786 14.1244 7.37508C13.9716 7.2223 13.7771 7.14591 13.541 7.14591C13.3049 7.14591 13.1105 7.2223 12.9577 7.37508L8.83268 11.5001ZM9.99935 18.3334C8.84657 18.3334 7.76324 18.1145 6.74935 17.6767C5.73546 17.239 4.85352 16.6454 4.10352 15.8959C3.35352 15.1465 2.75991 14.2645 2.32268 13.2501C1.88546 12.2356 1.66657 11.1523 1.66602 10.0001C1.66546 8.84786 1.88435 7.76453 2.32268 6.75008C2.76102 5.73564 3.35463 4.85369 4.10352 4.10425C4.85241 3.3548 5.73435 2.76119 6.74935 2.32341C7.76435 1.88564 8.84768 1.66675 9.99935 1.66675C11.151 1.66675 12.2344 1.88564 13.2494 2.32341C14.2644 2.76119 15.1463 3.3548 15.8952 4.10425C16.6441 4.85369 17.238 5.73564 17.6769 6.75008C18.1157 7.76453 18.3344 8.84786 18.3327 10.0001C18.331 11.1523 18.1121 12.2356 17.676 13.2501C17.2399 14.2645 16.6463 15.1465 15.8952 15.8959C15.1441 16.6454 14.2621 17.2392 13.2494 17.6776C12.2366 18.1159 11.1532 18.3345 9.99935 18.3334Z" fill="#3DB68A"/>
</svg>
